<svg width="157" height="157" viewBox="0 0 157 157" fill="none" xmlns="http://www.w3.org/2000/svg">
<path fill-rule="evenodd" clip-rule="evenodd" d="M84.0825 119.856C80.8618 118.601 77.7091 117.186 74.4985 115.911C73.8391 115.649 71.5559 115.323 71.2281 114.827C70.7692 114.132 72.4416 112.256 72.8185 111.809C74.7518 109.516 76.8707 107.431 79.0033 105.327C79.2507 105.082 80.6066 103.454 80.9113 103.529C82.071 103.815 82.286 106.261 82.5145 107.097C83.5103 110.749 84.977 115.726 85.0102 119.552" fill="black"/>
<path d="M84.0825 119.856C80.8618 118.601 77.7091 117.186 74.4985 115.911C73.8391 115.649 71.5559 115.323 71.2281 114.827C70.7692 114.132 72.4416 112.256 72.8185 111.809C74.7518 109.516 76.8707 107.431 79.0033 105.327C79.2507 105.082 80.6066 103.454 80.9113 103.529C82.071 103.815 82.286 106.261 82.5145 107.097C83.5103 110.749 84.977 115.726 85.0102 119.552" stroke="black" stroke-width="2.76298" stroke-miterlimit="1.5" stroke-linecap="round" stroke-linejoin="round"/>
<path d="M76.2857 110.225C67.4249 103.949 57.5385 91.6553 56.6017 80.3369C56.1765 75.2015 60.0746 62.5359 67.6482 65.273C75.9471 68.2727 67.1799 79.4291 60.5094 74.8917C54.6115 70.8794 54.2654 63.1465 56.2545 56.8903C59.7714 45.8344 67.5424 38.3372 78.4324 34.5896" stroke="black" stroke-width="2.76298" stroke-miterlimit="1.5" stroke-linecap="round" stroke-linejoin="round"/>
</svg>
